{"title":"High Resolution 2018 1080p WEB-DL DD 5.1 x264 [MW]","magnet":"magnet:?xt=urn:btih:e4ce3341ad6ba8096c868bf49f4eb054e16467f2&dn=High+Resolution+2018+1080p+WEB-DL+DD+5.1+x264+%5BMW%5D&tr=udp%3A%2F%2Ftracker.leechers-paradise.org%3A6969&tr=udp%3A%2F%2Fzer0day.ch%3A1337&tr=udp%3A%2F%2Fopen.demonii.com%3A1337&tr=udp%3A%2F%2Ftracker.coppersurfer.tk%3A6969&tr=udp%3A%2F%2Fexodus.desync.com%3A6969","uploader":"MFreaky","categoryP":"video","categoryS":"hd___movies","size":"2043259635","seeders":"2","leechers":"3","description":" <a href=\"https://pichub.site/image/ET30Y\" rel=\"nofollow\" target=\"_NEW\">https://pichub.site/image/ET30Y</a> <a href=\"\nhttps://pichub.site/image/ETZT6\" rel=\"nofollow\" target=\"_NEW\">\nhttps://pichub.site/image/ETZT6</a> <a href=\"\nhttps://pichub.site/image/ET9Et\" rel=\"nofollow\" target=\"_NEW\">\nhttps://pichub.site/image/ET9Et</a> <a href=\"\nhttps://pichub.site/image/ETHu4\" rel=\"nofollow\" target=\"_NEW\">\nhttps://pichub.site/image/ETHu4</a> <a href=\"\nhttps://pichub.site/image/ETTsp\" rel=\"nofollow\" target=\"_NEW\">\nhttps://pichub.site/image/ETTsp</a>\r\n\r\nIMDB <a href=\"\nhttps://www.imdb.com/title/tt4286760/\" rel=\"nofollow\" target=\"_NEW\">\nhttps://www.imdb.com/title/tt4286760/</a>\r\n\r\nVideo\r\nFormat                                   : AVC\r\nFormat/Info                              : Advanced Video Codec\r\nFormat profile                           : High@L4.1\r\nFormat settings                          : CABAC / 4 Ref Frames\r\nFormat settings, CABAC                   : Yes\r\nFormat settings, RefFrames               : 4 frames\r\nCodec ID                                 : V_MPEG4/ISO/AVC\r\nDuration                                 : 1 h 36 min\r\nBit rate                                 : 2 500 kb/s\r\nWidth                                    : 1 920 pixels\r\nHeight                                   : 794 pixels\r\nDisplay aspect ratio                     : 2.40:1\r\nFrame rate mode                          : Constant\r\nFrame rate                               : 23.976 (24000/1001) FPS\r\nColor space                              : YUV\r\nChroma subsampling                       : 4:2:0\r\nBit depth                                : 8 bits\r\nBits/(Pixel*Frame)                       : 0.068\r\nStream size                              : 1.64 GiB (86%)\r\nWriting library                          : x264 core 155 r2901 7d0ff22\r\n\r\nAudio\r\nFormat                                   : AC-3\r\nFormat/Info                              : Audio Coding 3\r\nCodec ID                                 : A_AC3\r\nDuration                                 : 1 h 36 min\r\nBit rate mode                            : Constant\r\nBit rate                                 : 384 kb/s\r\nChannel(s)                               : 6 channels\r\nChannel positions                        : Front: L C R, Side: L R, LFE\r\nSampling rate                            : 48.0 kHz\r\nFrame rate                               : 31.250 FPS (1536 SPF)\r\nBit depth                                : 16 bits\r\nStream size                              : 265 MiB (14%)\r\nLanguage                                 : English","last_updated":"2018-10-03T12:09:08.359Z","parsed":{"xt":"urn:btih:e4ce3341ad6ba8096c868bf49f4eb054e16467f2","dn":"High Resolution 2018 1080p WEB-DL DD 5.1 x264 [MW]","tr":["udp://exodus.desync.com:6969","udp://open.demonii.com:1337","udp://tracker.coppersurfer.tk:6969","udp://tracker.leechers-paradise.org:6969","udp://zer0day.ch:1337"],"infoHash":"e4ce3341ad6ba8096c868bf49f4eb054e16467f2","infoHashBuffer":{"type":"Buffer","data":[228,206,51,65,173,107,168,9,108,134,139,244,159,78,176,84,225,100,103,242]},"name":"High Resolution 2018 1080p WEB-DL DD 5.1 x264 [MW]","announce":["udp://exodus.desync.com:6969","udp://open.demonii.com:1337","udp://tracker.coppersurfer.tk:6969","udp://tracker.leechers-paradise.org:6969","udp://zer0day.ch:1337"],"urlList":[]}}